<svg xmlns="http://www.w3.org/2000/svg" viewBox="0 0 202.6 179.23"><defs><style>.cls-1,.cls-3,.cls-7,.cls-8{fill:#fff;}.cls-1,.cls-4{stroke:#9abd4b;stroke-width:4.41px;}.cls-1,.cls-11,.cls-12,.cls-4,.cls-8{stroke-miterlimit:10;}.cls-2{fill:#5d7031;}.cls-3,.cls-8{stroke:#fff;stroke-width:6px;}.cls-10,.cls-3{stroke-linejoin:round;}.cls-10,.cls-11,.cls-12,.cls-4{fill:none;}.cls-5{fill:#666565;}.cls-6{fill:#d8ae58;}.cls-9{fill:#666665;}.cls-10,.cls-11,.cls-12{stroke:#666665;}.cls-10{stroke-linecap:round;}.cls-10,.cls-11{stroke-width:2px;}.cls-12{stroke-width:2.1px;}</style></defs><title>traa_logo</title><g id="Layer_2" data-name="Layer 2"><g id="logo"><circle class="cls-1" cx="104.66" cy="78.71" r="76.51"/><path class="cls-2" d="M80.46,63.85H82.7L74.23,46.13,65.76,63.85H68l-2.24,4.68H68l-2.24,4.69h7.41v4a1.05,1.05,0,0,0,1.06,1.06h0a1.06,1.06,0,0,0,1.06-1.06v-4H82.7l-2.24-4.69H82.7Z"/><path class="cls-2" d="M75.29,73.22H82.7l-2.24-4.69H82.7l-2.24-4.68H82.7L74.23,46.13v32.2h0a1.06,1.06,0,0,0,1.06-1.06Z"/><path class="cls-3" d="M158.34,96.13s-10.3-1.19-14.22,7.61c0,0-1.5,6.15-5.46,8,0,0,12.56-3.46,16.68-6.34,0,0,4.58-5.24,6.34-6.54"/><path class="cls-2" d="M166.79,59.62h3.3l-12.5-26.15-12.5,26.15h3.31l-3.31,6.92h3.31l-3.31,6.91H156v6A1.56,1.56,0,0,0,157.59,81h0a1.56,1.56,0,0,0,1.56-1.57v-6h10.94l-3.3-6.91h3.3Z"/><path class="cls-2" d="M159.15,73.45h10.94l-3.3-6.91h3.3l-3.3-6.92h3.3l-12.5-26.15V81h0a1.56,1.56,0,0,0,1.56-1.57Z"/><path class="cls-2" d="M139.71,61.58h1.93l-7.3-15.27L127,61.58H129l-1.93,4H129l-1.93,4h6.39v3.5a.91.91,0,0,0,.91.91h0a.91.91,0,0,0,.91-.91v-3.5h6.39l-1.93-4h1.93Z"/><path class="cls-2" d="M135.25,69.66h6.39l-1.93-4h1.93l-1.93-4h1.93l-7.3-15.27V74.07h0a.91.91,0,0,0,.91-.91Z"/><path class="cls-2" d="M57.36,60.51h2.83L49.49,38.89,38.79,60.51h2.83l-2.83,5.72h2.83l-2.83,5.71h9.37v5a1.31,1.31,0,0,0,1.33,1.29h0a1.32,1.32,0,0,0,1.34-1.29v-5h9.36l-2.83-5.71h2.83Z"/><path class="cls-2" d="M50.83,71.94h9.36l-2.83-5.71h2.83l-2.83-5.72h2.83L49.49,38.89V78.18h0a1.32,1.32,0,0,0,1.34-1.29Z"/><circle class="cls-4" cx="104.66" cy="78.71" r="76.51"/><path class="cls-5" d="M27.51,119.69l-.92-1.88-11.73,5.7L14,121.68,25.7,116l-.91-1.88,1.93-.94,2.72,5.59Z"/><path class="cls-5" d="M33.06,124.9l-13,7.77-1-1.75,6.13-3.65L24,125.43l-6.13,3.65-1-1.75,13.05-7.77,1,1.75-5.07,3,1.1,1.84,5.07-3Z"/><path class="cls-5" d="M26.6,136l-1.15-1.6-3.1,1.75-1.12-1.56,13.7-7,1.19,1.65L25.15,140,24,138.36Zm1.59-1.54,4.06-3.68,0,0-4.79,2.66Z"/><path class="cls-5" d="M43.36,137.94,31.94,148l-1.35-1.53,7-6.17-7.91,5.17-.92-1.06L35,137.23l0,0-7,6.17-1.34-1.53,11.42-10,1.81,2.06-6,7,0,0,7.7-5Z"/><path class="cls-5" d="M44.25,141.77l-2.57,2.7,1.49,1.43-1.49,1.57L40.18,146l-3.41,3.58L39,151.77l-1.5,1.57-3.72-3.55,10.48-11,3.55,3.39-1.49,1.57Z"/><path class="cls-5" d="M48.9,148.61l.39-.49c.68-.83.72-1.55.34-1.86a1,1,0,0,0-1.46.35,3.06,3.06,0,0,0-.74,1.81L47,152.11a6,6,0,0,1-1.42,3.83c-1.38,1.69-3.22,1.76-4.49.73s-1.51-2.83-.14-4.51l1-1.23,1.59,1.3-.9,1.09c-.59.72-.57,1.32-.17,1.65s1,.19,1.59-.5a3.56,3.56,0,0,0,.78-2l.16-2.87c.24-2,.19-2.65,1.5-4.26s3.11-1.84,4.45-.74,1.42,2.92.15,4.49l-.68.82Z"/><path class="cls-5" d="M52.32,164.36,54,158.15l-.55-.35L50.13,163l-1.7-1.08,8.13-12.83,2.88,1.82c1.65,1.05,1.41,3.16.11,5.21s-2.61,2.74-3.78,2.77l-1.66,6.63Zm2.32-8.5.55.35c1.11.71,1.53.72,2.72-1.15.65-1,1-1.95.31-2.38l-1.11-.7Z"/><path class="cls-5" d="M57.5,167.32l-1.78-1L63,153l1.79,1Z"/><path class="cls-5" d="M63.54,170.28l-2-.91,4.08-14.85,2,.92-3.4,10.81h0l6.06-9.58,2,.9Z"/><path class="cls-5" d="M74.34,160.63l-1.28,3.51,2,.71-.75,2-1.94-.71-1.7,4.65,2.93,1.06-.75,2L68,172.17l5.21-14.27,4.61,1.68-.74,2Z"/><path class="cls-5" d="M79.31,175.83l-.23-6.41-.63-.17-1.63,5.9-1.95-.54,4-14.64,3.28.9c1.88.52,2.27,2.61,1.62,4.95-.6,2.18-1.69,3.38-2.81,3.75l.34,6.83Zm-.25-8.8.63.17c1.27.35,1.67.24,2.26-1.89.33-1.18.38-2.15-.39-2.36l-1.27-.35Z"/><path class="cls-5" d="M91.22,174.59l-2-.29-.9,3.44-1.9-.28L91,162.78l2,.3.09,15.37-2-.3Zm0-2.21.19-5.48h0l-1.43,5.3Z"/><path class="cls-5" d="M102.38,163.91l-1,15.15-2-.14-1.4-8.82h0l-.6,8.68-2-.14,1.05-15.15,2.14.15,1.3,8.53h0l.59-8.4Z"/><path class="cls-5" d="M107.68,168.23l0-1.19c0-.46-.37-1.23-1-1.22s-1,.8-1,1.26l.19,8.76c0,.46.34,1.23,1.06,1.22s1.13-.74,1.11-2l0-2.32-1.14,0-.05-2.16,3-.07.11,4.69c0,2.06-.85,3.94-2.9,4a3.09,3.09,0,0,1-3.15-3.32l-.19-8.78c0-1.54.74-3.43,3-3.48a3.15,3.15,0,0,1,3.06,3.34l0,1.2Z"/><path class="cls-5" d="M116.85,176.17l.21,2.16-4.68.46-1.48-15.12,2-.19,1.26,13Z"/><path class="cls-5" d="M118.92,164.88l.62,3.68,2-.34.36,2.14-2,.34.82,4.88,3.07-.52.36,2.14-5.07.86-2.54-15,4.85-.82.36,2.14Z"/><path class="cls-5" d="M130.77,175.63l-3.37-5.45-.64.16,1.5,5.93-1.95.49L122.58,162l3.3-.83c1.9-.48,3.26,1.14,3.86,3.5.55,2.18.2,3.77-.59,4.64l3.68,5.77Zm-4.57-7.52.63-.16c1.28-.33,1.57-.62,1-2.77-.3-1.18-.74-2.05-1.51-1.85l-1.28.32Z"/><path class="cls-5" d="M134.62,163l-.2-.6c-.35-1-.94-1.42-1.4-1.26s-.7.77-.48,1.43a3.06,3.06,0,0,0,1.15,1.58l2.94,2.27a6,6,0,0,1,2.51,3.22c.71,2.07-.2,3.67-1.74,4.2s-3.2-.2-3.91-2.25l-.52-1.5,1.94-.67.46,1.33c.31.89.83,1.19,1.32,1s.7-.77.4-1.61a3.57,3.57,0,0,0-1.3-1.73l-2.36-1.64c-1.56-1.25-2.15-1.56-2.83-3.53s.06-3.6,1.71-4.17,3.23.33,3.89,2.24l.34,1Z"/><path class="cls-5" d="M147.65,165.46l-1.78.86,1.2,3.35-1.73.84-4.53-14.69,1.83-.89,8.75,12.65-1.83.89Zm-1.25-1.83L143.46,159l0,0,1.8,5.18Z"/><path class="cls-5" d="M150.76,155.31l-.32-.54c-.54-.92-1.2-1.21-1.62-1a1,1,0,0,0-.18,1.49,3,3,0,0,0,1.44,1.32l3.33,1.64a6,6,0,0,1,3.1,2.66c1.11,1.88.54,3.63-.86,4.46s-3.18.44-4.28-1.43l-.81-1.36,1.77-1.05.72,1.22c.47.8,1,1,1.49.73s.53-.89.07-1.66A3.46,3.46,0,0,0,153,160.4l-2.64-1.14c-1.78-.91-2.42-1.09-3.48-2.89s-.65-3.54.85-4.43,3.23-.32,4.25,1.42l.54.92Z"/><path class="cls-5" d="M156.72,151.38l-.36-.51c-.61-.87-1.3-1.1-1.7-.82a1.05,1.05,0,0,0-.06,1.5,3,3,0,0,0,1.54,1.19l3.46,1.37a6.08,6.08,0,0,1,3.3,2.4c1.26,1.8.83,3.58-.51,4.52s-3.13.69-4.38-1.08l-.91-1.3,1.68-1.18.81,1.16c.54.76,1.12.91,1.54.61s.46-.93,0-1.66a3.54,3.54,0,0,0-1.73-1.3l-2.72-.93c-1.86-.76-2.51-.89-3.7-2.6s-.94-3.48.48-4.48,3.2-.57,4.36,1.07l.62.87Z"/><path class="cls-5" d="M163.45,144.69l5.62,6.73c1,1.2,1.49,3.22-.07,4.52-1.73,1.44-3.53.52-4.53-.69l-5.62-6.73c-1-1.2-1.55-3.11.17-4.55C160.59,142.67,162.45,143.49,163.45,144.69ZM161.9,146c-.29-.35-1.06-.77-1.52-.4s-.24,1.28,0,1.6l5.6,6.72c.32.38,1.06.81,1.61.36s.16-1.24-.13-1.59Z"/><path class="cls-5" d="M168.2,141.8l-.84-.85c-.32-.32-1.11-.64-1.53-.23a1.18,1.18,0,0,0,.14,1.6l6.15,6.25a1.19,1.19,0,0,0,1.6.16c.42-.41.11-1.21-.21-1.53l-.83-.85,1.46-1.44.83.85a3.14,3.14,0,0,1,.27,4.51,3.11,3.11,0,0,1-4.58-.24l-6.16-6.26a3.05,3.05,0,1,1,4.32-4.26l.84.85Z"/><path class="cls-5" d="M180,144.92l-1.35,1.51-11.32-10.14,1.36-1.51Z"/><path class="cls-5" d="M181.27,137.86l-1.22,1.55,2.54,2.5-1.19,1.5-10.48-11.24,1.26-1.6,13.38,7.56-1.26,1.6Zm-1.92-1.1-4.66-2.89,0,0,3.88,3.87Z"/><path class="cls-5" d="M178.4,125.51l-1.19,1.73L188,134.62l-1.15,1.68-10.75-7.38-1.18,1.72-1.77-1.22,3.52-5.13Z"/><path class="cls-5" d="M191.23,129.42l-1,1.75-13-7.82,1-1.74Z"/><path class="cls-5" d="M184.49,116.62l7.79,4c1.39.71,2.63,2.38,1.69,4.19-1,2-3.05,1.84-4.44,1.12l-7.79-4c-1.38-.72-2.64-2.26-1.61-4.26A3.11,3.11,0,0,1,184.49,116.62Zm-.91,1.82c-.4-.21-1.29-.3-1.56.22s.27,1.27.64,1.46l7.77,4c.44.23,1.29.34,1.62-.3s-.34-1.2-.74-1.41Z"/><path class="cls-5" d="M184.5,108.41l14,5.79-.77,1.88L189,114.61v0l8,3.32-.77,1.88-14.05-5.79.82-2,8.5,1.47,0,0-7.79-3.21Z"/><path class="cls-5" d="M75.17,133.92H73.64l-.3,2.05H71.85l1.82-8.82h1.57L77.06,136H75.48Zm-.25-1.27-.48-3.17h0l-.49,3.17Z"/><path class="cls-5" d="M83.51,127.15V136H81.93l-1.55-5.05h0V136H78.78v-8.82h1.67L81.91,132h0v-4.89Z"/><path class="cls-5" d="M88.46,129.71V129A.76.76,0,0,0,87,129v5.09a.77.77,0,0,0,.79.72c.6,0,.9-.42.9-1.14v-1.35h-.88v-1.26h2.29v2.73a2.15,2.15,0,0,1-2.31,2.28c-1.75,0-2.38-1.09-2.38-2V129c0-.9.63-2,2.38-2a2.09,2.09,0,0,1,2.31,2v.69Z"/><path class="cls-5" d="M95.52,134.71V136H91.88v-8.82h1.58v7.56Z"/><path class="cls-5" d="M98.81,128.41v2.17h1.61v1.26H98.81v2.87h2.41V136h-4v-8.82h3.81v1.26Z"/><path class="cls-5" d="M106.5,136l-1.5-3.55h-.5V136h-1.56v-8.82h2.63c1.51,0,2.23,1.11,2.23,2.52a2.62,2.62,0,0,1-1.32,2.53l1.66,3.77Zm-2-4.89h.5c1,0,1.3-.12,1.3-1.41,0-.7-.16-1.26-.78-1.26h-1Z"/><path class="cls-5" d="M112.54,129.62v-.36c0-.62-.33-1-.71-1a.68.68,0,0,0-.7.69,1.45,1.45,0,0,0,.44,1.09l1.57,1.8a3,3,0,0,1,1,2.24,2.08,2.08,0,0,1-2.33,2,2,2,0,0,1-2.29-2v-.92h1.59V134c0,.54.3.81.7.81a.72.72,0,0,0,.71-.81,1.75,1.75,0,0,0-.52-1.2l-1.31-1.35c-.83-1-1.19-1.26-1.19-2.47a2.32,2.32,0,0,1,4.59,0v.62Z"/><path class="cls-5" d="M115.94,134.4h1.58V136h-1.58Z"/><path class="cls-5" d="M124,129v5.1a2.08,2.08,0,0,1-2.28,2c-1.74,0-2.36-1.09-2.36-2V129c0-.9.62-2,2.36-2A2.06,2.06,0,0,1,124,129Zm-1.58,0a.78.78,0,0,0-.7-.75.76.76,0,0,0-.78.72v5.08a.76.76,0,0,0,.78.76.79.79,0,0,0,.7-.76Z"/><path class="cls-5" d="M129.39,136l-1.5-3.55h-.5V136h-1.56v-8.82h2.63c1.51,0,2.23,1.11,2.23,2.52a2.64,2.64,0,0,1-1.32,2.53L131,136Zm-2-4.89h.5c1,0,1.3-.12,1.3-1.41,0-.7-.16-1.26-.78-1.26h-1Z"/><path class="cls-5" d="M135.57,129.71V129a.76.76,0,0,0-1.51,0v5.09a.77.77,0,0,0,.79.72c.59,0,.9-.42.9-1.14v-1.35h-.89v-1.26h2.3v2.73a2.15,2.15,0,0,1-2.31,2.28c-1.75,0-2.38-1.09-2.38-2V129c0-.9.63-2,2.38-2a2.09,2.09,0,0,1,2.31,2v.69Z"/><path class="cls-5" d="M80.72,31.26v2.41H82.5v1.4H80.72v3.2H83.4v1.4H79V29.86H83.2v1.4Z"/><path class="cls-5" d="M88.54,32.61V32.2c0-.68-.37-1.06-.79-1.06a.75.75,0,0,0-.78.77,1.59,1.59,0,0,0,.49,1.2l1.75,2a3.3,3.3,0,0,1,1.13,2.49,2.31,2.31,0,0,1-2.59,2.2,2.28,2.28,0,0,1-2.55-2.2v-1H87v.91c0,.6.33.89.78.89a.8.8,0,0,0,.79-.89A1.92,1.92,0,0,0,88,36.17l-1.45-1.5c-.93-1.1-1.32-1.4-1.32-2.75a2.58,2.58,0,0,1,5.1,0v.69Z"/><path class="cls-5" d="M97.45,31.25h-1.8v8.42H93.9V31.25H92.1V29.86h5.35Z"/><path class="cls-5" d="M98.48,37.92h1.75v1.75H98.48Z"/><path class="cls-5" d="M106.22,29.86H108v9.81h-1.75V31.26h-.78v-1Z"/><path class="cls-5" d="M110,33.69c0-.14,0-1.25,0-1.38a2.46,2.46,0,0,1,2.78-2.57,2.32,2.32,0,0,1,2.56,2.2v4.93a2.73,2.73,0,0,1-2.66,2.92,2.26,2.26,0,0,1-2.44-2.19v-.78h1.68v.78a.76.76,0,0,0,.76.79c.67,0,.9-.74.9-1.52V35.31a1.42,1.42,0,0,1-1.19.55A2.15,2.15,0,0,1,110,33.69Zm1.79,0a.81.81,0,0,0,.87.78c.56,0,.93-.26.93-.52V32a.87.87,0,0,0-.8-.81c-.7,0-1,.38-1,1.17C111.8,32.43,111.78,33.56,111.78,33.69Z"/><path class="cls-5" d="M123,36.87a2.83,2.83,0,1,1-5.66,0,2.54,2.54,0,0,1,1.61-2.5,2.47,2.47,0,0,1-1.29-2.17,2.5,2.5,0,0,1,5,0,2.43,2.43,0,0,1-1.29,2.17A2.55,2.55,0,0,1,123,36.87Zm-1.79,0c0-.91-.24-1.6-1-1.75-.81.15-1,.84-1,1.75s.35,1.52,1.19,1.52C120.94,38.39,121.21,37.58,121.21,36.87Zm-1.9-4.54a.91.91,0,1,0,1.7,0c0-.7-.28-1.19-.81-1.19S119.31,31.64,119.31,32.33Z"/><path class="cls-5" d="M130.33,35.84c0,.14,0,1.25,0,1.38a2.45,2.45,0,0,1-2.76,2.57A2.32,2.32,0,0,1,125,37.6V32.68a2.73,2.73,0,0,1,2.63-2.94,2.25,2.25,0,0,1,2.45,2.2v.67h-1.69V32a.76.76,0,0,0-.76-.81c-.67,0-.87.75-.87,1.54v1.54a1.39,1.39,0,0,1,1.19-.55A2.15,2.15,0,0,1,130.33,35.84Zm-1.79,0a.8.8,0,0,0-.88-.77c-.55,0-.9.26-.9.51v2a.84.84,0,0,0,.8.79c.67,0,1-.38,1-1.17C128.53,37.1,128.54,36,128.54,35.84Z"/><circle class="cls-6" cx="104.75" cy="14.11" r="3.91"/><ellipse class="cls-7" cx="103" cy="11.87" rx="0.76" ry="0.47" transform="translate(16 68.26) rotate(-39.52)"/><circle class="cls-6" cx="82.59" cy="19.3" r="3.91"/><ellipse class="cls-7" cx="80.84" cy="17.06" rx="0.76" ry="0.47" transform="translate(7.63 55.34) rotate(-39.52)"/><circle class="cls-6" cx="126.15" cy="19.3" r="3.91"/><ellipse class="cls-7" cx="124.4" cy="17.06" rx="0.76" ry="0.47" transform="translate(17.59 83.07) rotate(-39.52)"/><ellipse class="cls-7" cx="82.59" cy="20.59" rx="1.98" ry="1.04"/><ellipse class="cls-7" cx="104.75" cy="15.45" rx="1.98" ry="1.04"/><ellipse class="cls-7" cx="126.15" cy="20.59" rx="1.98" ry="1.04"/><path class="cls-8" d="M116.89,70s-2.84-1.51-4.25-1.55c0,0-11.15-10.56-13.73-12,0,0-6.75,11-9.71,11.89,0,0-.82,1,2.67,1.26,0,0,3.3,0,3.64.39,0,0,1.17.43,1.07,1.07"/><path class="cls-8" d="M69.3,72.5A29.07,29.07,0,0,0,56.47,69s-2.33.5-4.17,4.33c0,0,0,.67,1.17,1.34"/><path class="cls-8" d="M49,90.65c-1.49-.24-13.18,4.73-13.18,4.73C12.2,110.18,3,108,3,108c0-5,8.94-19.19,8.94-19.19,4.69-5.76,1.92-9.6,1.92-9.6C3.41,57.66,4.7,57.54,4.7,57.54c5.77-.14,27.93,10.14,27.93,10.14a106.49,106.49,0,0,0,10.46,4.7l5.1,2c1.46.84,13.2.49,13.2.49,23.6-6.76,94.08-6.31,94.08-6.31l7.77.57S193.68,72.78,198.31,81c0,0-7.24,3.77-11.49,7.77,0,0,6.11-.65,7.49-1l5.29-.41s.41.43-7.67,6.28a80.78,80.78,0,0,1-12.5,4.75L172.1,100c-6,1.5-11.68,4.37-16.76,5.42,0,0-14.73,3-39,1.32S99.69,104,80.61,99.35,61,92.57,49,90.65Z"/><path class="cls-8" d="M116.31,100.42s-3.62,15.25-10.26,17.36a26.34,26.34,0,0,1-5.1-8.39,29.49,29.49,0,0,1-1.69-6.4s.3-2.42,2.27-2.57c0,0,3.16,1.06,4.67,0"/><path class="cls-8" d="M76.51,97.05a39.09,39.09,0,0,1-9.79,10.09s-2.82,3-4.06,2.71c-.75-.16-.29-2.15-.11-4.87a22.18,22.18,0,0,0-5.41-8.66s-1.83-1.46,0-2.31c0,0,.36.12,5-1"/><text/><polygon class="cls-9" points="8.01 64.57 29.42 72.77 7.38 66.47 8.01 64.57"/><polygon class="cls-9" points="12.28 74.67 23.75 76.99 12.05 76.66 12.28 74.67"/><polygon class="cls-9" points="13.44 85.23 23.75 83.96 13.88 87.18 13.44 85.23"/><polygon class="cls-9" points="10.24 90.88 27.42 88.06 10.68 92.83 10.24 90.88"/><polygon class="cls-9" points="6.26 97.18 28.42 90.78 6.9 99.08 6.26 97.18"/><polygon class="cls-9" points="3.25 102.72 28.15 95.03 3.91 104.61 3.25 102.72"/><path class="cls-9" d="M185.89,78.9a.82.82,0,0,0-.64-.83c-.07,0-.53-.17-.67-.19a2.38,2.38,0,0,0-1,0,3.5,3.5,0,0,0-1.1.43,2.07,2.07,0,0,0-1,1c-.21.36-.12,1.18.28,1.37.89.43,1.44,1.13,2.44.85a1.19,1.19,0,0,0,.89-.37,1.88,1.88,0,0,0,.47-.93,1.76,1.76,0,0,0,.21-.58"/><path class="cls-10" d="M43.21,91.86s4.59-6.27,44.92,9.76c0,0-.76-.12,11.13,3.29"/><path class="cls-11" d="M114.35,106.63c5.55.2,16.6.58,24.31.46,0,0,1.61,0,4.25-.11"/><path class="cls-9" d="M158.33,96.23a16.73,16.73,0,0,0-4.24.34c-.35.06-.69.17-1,.25s-.67.21-1,.32a9.17,9.17,0,0,0-1,.38,8.17,8.17,0,0,0-.94.46c-.3.17-.62.32-.91.52l-.85.6a10,10,0,0,0-.78.68,5.11,5.11,0,0,0-.73.74c-.22.26-.46.51-.66.78l-.58.86a17.53,17.53,0,0,0-1,1.82l0-.1a17.2,17.2,0,0,1-.79,2.46,16.59,16.59,0,0,1-1.12,2.33,12.84,12.84,0,0,1-1.57,2.13,8.75,8.75,0,0,1-1,.9,4.49,4.49,0,0,1-.57.4l-.61.35-.55-1.5c2.83-.86,5.63-1.88,8.4-2.89,1.38-.52,2.77-1,4.12-1.56.69-.26,1.35-.54,2-.84a20.75,20.75,0,0,0,1.88-1l-.15.14c1.07-1.11,2.16-2.17,3.29-3.2.57-.52,1.15-1,1.75-1.51a15,15,0,0,1,1.88-1.36.09.09,0,0,1,.13,0,.08.08,0,0,1,0,.12c-1.05,1.07-2,2.29-2.94,3.46L156,105.92l-.12.12,0,0-1,.68-1,.58c-.68.36-1.36.71-2.05,1s-1.39.61-2.1.89-1.41.53-2.12.77c-1.43.48-2.87.92-4.31,1.32s-2.89.81-4.35,1.18a.81.81,0,0,1-.57-1.5h0l.48-.25a4,4,0,0,0,.46-.3,8.08,8.08,0,0,0,.87-.7,10.76,10.76,0,0,0,1.45-1.81,15.66,15.66,0,0,0,1.13-2.1,15.82,15.82,0,0,0,.83-2.23l0-.07,0,0a17.84,17.84,0,0,1,1.13-1.94l.67-.9c.23-.29.51-.55.77-.82a5.29,5.29,0,0,1,.82-.75c.3-.23.58-.48.89-.68l.94-.58c.32-.19.67-.33,1-.5a8.39,8.39,0,0,1,1-.42,9,9,0,0,1,1-.34,9.64,9.64,0,0,1,1.06-.26c.36-.07.72-.16,1.08-.2a17.51,17.51,0,0,1,4.34-.09.1.1,0,0,1,0,.2Z"/><path class="cls-9" d="M116.89,70c-.71-.28-1.43-.52-2.15-.74-.36-.11-.72-.2-1.08-.28a4.87,4.87,0,0,0-1-.12h-.13l-.15-.12c-2.35-1.93-4.67-3.9-7-5.85-1.15-1-2.3-2-3.47-2.92-.58-.48-1.16-1-1.74-1.42-.3-.23-.59-.46-.88-.67s-.57-.39-.84-.56L99.76,57c-.68,1.13-1.41,2.2-2.14,3.28s-1.49,2.14-2.3,3.17a37.94,37.94,0,0,1-2.54,3,17.59,17.59,0,0,1-1.46,1.4c-.27.22-.55.44-.85.64a4.24,4.24,0,0,1-1.07.5l.32-.21c.07-.09,0-.08.06-.15a.29.29,0,0,0,0-.14s0,0,0,0,0,0,0,0a1.39,1.39,0,0,0,.25.14,3.24,3.24,0,0,0,.33.13,12.12,12.12,0,0,0,1.55.33h0c.63,0,1.25.1,1.87.18q.47.06.93.15c.16,0,.32.07.48.12l.24.09a.67.67,0,0,1,.29.19l-.09-.06a2.92,2.92,0,0,1,.7.51.86.86,0,0,1,.29.77.75.75,0,0,0-.44-.59,3.06,3.06,0,0,0-.71-.27l-.09-.07s0,0-.11,0l-.2,0a3.11,3.11,0,0,0-.43,0l-.91,0c-.6,0-1.22,0-1.82.07h0a10.83,10.83,0,0,1-1.76-.18,2.75,2.75,0,0,1-.47-.13,1.83,1.83,0,0,1-.51-.22,1.3,1.3,0,0,1-.54-.57,1,1,0,0,1-.08-.55,1,1,0,0,1,.22-.54l.08-.11.24-.1a4.61,4.61,0,0,0,1.3-1,16.19,16.19,0,0,0,1.23-1.37c.8-1,1.57-2,2.3-3s1.45-2.09,2.16-3.16,1.38-2.16,2.06-3.23l.54-.85.79.5c.37.24.74.48,1,.72s.63.48.93.72c.61.49,1.19,1,1.77,1.49,1.15,1,2.26,2.06,3.38,3.11,2.2,2.11,4.35,4.27,6.42,6.51l-.27-.11a4.83,4.83,0,0,1,1.19.32,11.37,11.37,0,0,1,1.06.48A17.76,17.76,0,0,1,116.89,70Z"/><path class="cls-9" d="M111.47,70.05,99.59,59.38l12.52,9.9a.5.5,0,0,1-.62.79Z"/><path class="cls-9" d="M106.66,70l-7.87-7.66,8.53,6.91a.5.5,0,0,1,.08.7.51.51,0,0,1-.71.08Z"/><path class="cls-9" d="M102.37,69.63,97.48,65l5.52,3.9a.5.5,0,0,1-.57.82Z"/><path class="cls-9" d="M98.71,70.21l-3.89-3.68,4.51,2.89a.51.51,0,0,1,.15.7.5.5,0,0,1-.69.15Z"/><path class="cls-9" d="M69.3,72.5c-1.09-.34-2.16-.63-3.23-.91-.53-.14-1.07-.25-1.6-.38s-1.08-.22-1.61-.34-1.06-.21-1.6-.29-1.07-.18-1.61-.25-1.08-.13-1.61-.2S57,70,56.42,70l.25,0-.2.06a1.53,1.53,0,0,0-.27.11,4,4,0,0,0-.57.31,9.18,9.18,0,0,0-1.06.85,10.8,10.8,0,0,0-1,1.06c-.31.38-.59.79-.87,1.2l0-.21s0,0,0,0v.07a1.15,1.15,0,0,0,0,.16,2.13,2.13,0,0,0,.15.36,4,4,0,0,0,.54.74,2.8,2.8,0,0,1-.93-.36,1.69,1.69,0,0,1-.41-.35,1.44,1.44,0,0,1-.18-.25,1,1,0,0,1-.07-.15.66.66,0,0,1-.06-.22v-.06l.06-.15a12.15,12.15,0,0,1,.62-1.5,8.77,8.77,0,0,1,.89-1.41A6.64,6.64,0,0,1,54.58,69a5.74,5.74,0,0,1,.74-.52c.13-.08.27-.15.41-.22a3.25,3.25,0,0,1,.54-.19l.09,0h.16a24.6,24.6,0,0,1,3.43.34,22.46,22.46,0,0,1,3.35.83,20.13,20.13,0,0,1,3.17,1.35A13,13,0,0,1,69.3,72.5Z"/><path class="cls-9" d="M152.79,75.3l-.11-.19a.58.58,0,0,0-.45-.58s-.38-.12-.47-.13a1.46,1.46,0,0,0-.72,0,2.51,2.51,0,0,0-.78.29,2.46,2.46,0,0,0-.83,1c-.15.25-.2.64.08.77a2.89,2.89,0,0,0,2,.53.8.8,0,0,0,.62-.26,1.35,1.35,0,0,0,.33-.65,1.27,1.27,0,0,0,.15-.41C152.69,75.69,152.84,75.39,152.79,75.3Z"/><path class="cls-9" d="M138.43,75.44l-.07-.11a.35.35,0,0,0-.27-.35l-.29-.08a.89.89,0,0,0-.43,0,1.28,1.28,0,0,0-.47.18,1.44,1.44,0,0,0-.51.58c-.09.15-.12.39.05.47a1.77,1.77,0,0,0,1.2.32.53.53,0,0,0,.38-.16,1,1,0,0,0,.2-.39,1.25,1.25,0,0,0,.09-.25C138.37,75.68,138.46,75.5,138.43,75.44Z"/><path class="cls-9" d="M64.18,72.11,64.11,72a.37.37,0,0,0-.27-.36l-.29-.08a1.24,1.24,0,0,0-.43,0,1.76,1.76,0,0,0-.47.18,1.54,1.54,0,0,0-.51.59c-.09.15-.12.39,0,.47a1.82,1.82,0,0,0,1.2.32.53.53,0,0,0,.38-.16.94.94,0,0,0,.2-.4,1,1,0,0,0,.09-.24C64.12,72.35,64.21,72.17,64.18,72.11Z"/><path class="cls-9" d="M56.32,73.14l0-.07a.22.22,0,0,0-.17-.23l-.18,0a.66.66,0,0,0-.28,0,.73.73,0,0,0-.3.12.82.82,0,0,0-.33.38c-.06.09-.08.24,0,.29s.5.29.77.21a.33.33,0,0,0,.24-.1.5.5,0,0,0,.13-.26.47.47,0,0,0,.06-.15S56.34,73.18,56.32,73.14Z"/><path class="cls-9" d="M59.3,71.14l0,0a.16.16,0,0,0-.12-.17l-.14,0a.34.34,0,0,0-.2,0,.72.72,0,0,0-.22.08.66.66,0,0,0-.24.28c0,.07-.06.18,0,.22a.91.91,0,0,0,.57.15.23.23,0,0,0,.17-.08.4.4,0,0,0,.1-.18.42.42,0,0,0,0-.12S59.31,71.17,59.3,71.14Z"/><path class="cls-12" d="M155.34,105.38c5.08-1,10.75-3.92,16.76-5.42l7.33-1.56a80.78,80.78,0,0,0,12.5-4.75c8.08-5.85,7.67-6.28,7.67-6.28l-5.29.41c-1.38.37-7.49,1-7.49,1,4.25-4,11.49-7.77,11.49-7.77-4.63-8.25-35.07-11.93-35.07-11.93l-7.77-.57S85,68.08,61.39,74.84c0,0-11.74.35-13.2-.49l-5.1-2a106.49,106.49,0,0,1-10.46-4.7S10.47,57.4,4.7,57.54c0,0-1.29.12,9.16,21.66,0,0,2.77,3.84-1.92,9.6C11.94,88.8,3,103,3,108c0,0,9.2,2.19,32.84-12.61,0,0,11.7-5,13.18-4.73"/><path class="cls-9" d="M143.05,81a.41.41,0,0,0-.07-.11.37.37,0,0,0-.27-.36l-.28-.08a1.29,1.29,0,0,0-.44,0,1.76,1.76,0,0,0-.47.18,1.44,1.44,0,0,0-.5.59c-.09.15-.12.39,0,.47a1.81,1.81,0,0,0,1.2.32.52.52,0,0,0,.37-.16.76.76,0,0,0,.2-.4.54.54,0,0,0,.09-.24C143,81.19,143.08,81,143.05,81Z"/><path class="cls-9" d="M109.1,76.77a1.27,1.27,0,0,0-.07-.12.35.35,0,0,0-.27-.35l-.29-.08a.89.89,0,0,0-.43,0,1.32,1.32,0,0,0-1,.77c-.09.15-.11.38,0,.46a1.77,1.77,0,0,0,1.2.32.49.49,0,0,0,.38-.16.77.77,0,0,0,.2-.39A1.06,1.06,0,0,0,109,77C109,77,109.13,76.82,109.1,76.77Z"/><path class="cls-9" d="M74.22,78.76l-.12-.19a.58.58,0,0,0-.45-.58s-.37-.12-.47-.13a1.46,1.46,0,0,0-.72,0,2.33,2.33,0,0,0-.77.3,2.29,2.29,0,0,0-.83,1c-.16.25-.2.64.08.77a2.87,2.87,0,0,0,2,.53.82.82,0,0,0,.62-.26,1.35,1.35,0,0,0,.33-.65,1.44,1.44,0,0,0,.15-.41C74.12,79.15,74.27,78.85,74.22,78.76Z"/><path class="cls-9" d="M77.71,87.69l-.12-.19a.57.57,0,0,0-.45-.58s-.37-.12-.46-.13a1.5,1.5,0,0,0-.73,0,2.55,2.55,0,0,0-.77.29,2.38,2.38,0,0,0-.83,1c-.15.25-.2.64.08.77a2.89,2.89,0,0,0,2,.53.82.82,0,0,0,.62-.26,1.35,1.35,0,0,0,.33-.65,1.56,1.56,0,0,0,.15-.41C77.61,88.08,77.76,87.78,77.71,87.69Z"/><path class="cls-9" d="M85,81l-.07-.11a.37.37,0,0,0-.27-.36l-.28-.08a1.3,1.3,0,0,0-.44,0,1.76,1.76,0,0,0-.47.18,1.44,1.44,0,0,0-.5.59c-.1.15-.12.39,0,.47a1.78,1.78,0,0,0,1.19.32.53.53,0,0,0,.38-.16.76.76,0,0,0,.2-.4,1,1,0,0,0,.09-.24C84.92,81.19,85,81,85,81Z"/><path class="cls-9" d="M98.67,74.71a.22.22,0,0,0,0-.08.25.25,0,0,0-.19-.26s-.16-.05-.2-.05a.69.69,0,0,0-.32,0,1,1,0,0,0-.33.13,1,1,0,0,0-.37.42c-.06.11-.08.27,0,.33a1.28,1.28,0,0,0,.86.23.39.39,0,0,0,.27-.11.53.53,0,0,0,.14-.29.61.61,0,0,0,.07-.17S98.69,74.75,98.67,74.71Z"/><path class="cls-9" d="M120.18,80.21a.35.35,0,0,0-.05-.08.26.26,0,0,0-.19-.25l-.21-.06a.65.65,0,0,0-.31,0,1.62,1.62,0,0,0-.33.13,1.08,1.08,0,0,0-.37.42c-.06.11-.08.28,0,.34a1.28,1.28,0,0,0,.86.23.36.36,0,0,0,.27-.12.53.53,0,0,0,.14-.28.56.56,0,0,0,.07-.18S120.2,80.25,120.18,80.21Z"/><path class="cls-9" d="M150.58,81.81a.35.35,0,0,0-.05-.08.25.25,0,0,0-.19-.25l-.2-.06a.86.86,0,0,0-.32,0,1.62,1.62,0,0,0-.33.13,1.16,1.16,0,0,0-.37.42c-.06.11-.08.28,0,.34a1.28,1.28,0,0,0,.86.23.39.39,0,0,0,.27-.11.53.53,0,0,0,.14-.29.61.61,0,0,0,.07-.17S150.6,81.85,150.58,81.81Z"/><path class="cls-9" d="M191,85.88s-4.18,4.17-5.63,3.45c0,0,7.36,4,15.36-2.77Z"/><path class="cls-9" d="M190.46,82.15s-1.15.59-2.81,1.56c-.84.49-1.8,1.07-2.8,1.73a20.44,20.44,0,0,0-2.95,2.26,3.11,3.11,0,0,0-.93,1.35.28.28,0,0,0,0,.21.72.72,0,0,0,.14.24,1,1,0,0,0,.51.25,3.26,3.26,0,0,0,1.46-.15,4.75,4.75,0,0,0,.73-.23,6.69,6.69,0,0,0,.67-.27c.88-.35,1.59-.73,2.1-1s.8-.39.8-.39l.06.08s-.23.23-.67.6a8.21,8.21,0,0,1-.81.64,10.31,10.31,0,0,1-1.12.76,7.74,7.74,0,0,1-1.47.71,3.84,3.84,0,0,1-2,.24,1.66,1.66,0,0,1-1.38-1.93,4,4,0,0,1,1.3-1.73A21.87,21.87,0,0,1,184.54,85c1.05-.62,2.07-1.12,2.94-1.55,1.75-.84,2.94-1.34,2.94-1.34Z"/><path class="cls-9" d="M166.38,74.47a30.37,30.37,0,0,0-3.72,6A18,18,0,0,0,160.83,87a10.33,10.33,0,0,0,.34,3.29,9.19,9.19,0,0,0,1.43,2.89,16,16,0,0,0,2.19,2.41,22,22,0,0,0,2.66,2.08l.24.17.06.12a3.63,3.63,0,0,0,.23.41c.1.15.2.29.31.43a4.58,4.58,0,0,0,.73.73,2.55,2.55,0,0,0,.43.3,2.62,2.62,0,0,0,.48.22,2.46,2.46,0,0,0,.53.15,5.4,5.4,0,0,0,.58.08l0,.19a4.31,4.31,0,0,1-.61.19,2.81,2.81,0,0,1-.65.07,3.81,3.81,0,0,1-.67-.07,4.54,4.54,0,0,1-1.81-.88,5.47,5.47,0,0,1-.51-.45,4.31,4.31,0,0,1-.46-.54l.3.29a17.31,17.31,0,0,1-1.65-.87,14.73,14.73,0,0,1-1.55-1.07,10.6,10.6,0,0,1-2.54-2.87,11.49,11.49,0,0,1-1.5-7.39A18.29,18.29,0,0,1,161.88,80a28.5,28.5,0,0,1,4.35-5.69Z"/><path class="cls-9" d="M168.9,79.69a14.91,14.91,0,0,0-.51,1.85c-.14.62-.25,1.25-.33,1.88a13.31,13.31,0,0,0-.11,1.89c0,.31,0,.63,0,.94l.09.93.17.91a6.47,6.47,0,0,0,.24.89,4.42,4.42,0,0,0,.31.86,7.55,7.55,0,0,0,.39.81l.48.77c.17.24.38.46.56.69l.29.34.34.3.68.58-.19-.11A23.11,23.11,0,0,0,174,94a10.46,10.46,0,0,0,1.3.19,3.29,3.29,0,0,0,.56,0,.77.77,0,0,0,.2,0c.07,0,0,0,0,0l-.44.73v-.95l-.05-1a18.8,18.8,0,0,0-.22-1.89,9,9,0,0,0-.19-.9,5.27,5.27,0,0,0-.28-.82,2.42,2.42,0,0,0-.19-.36,2.08,2.08,0,0,0-.21-.33,3.36,3.36,0,0,0-.24-.29,2.09,2.09,0,0,1-.28-.24l-.38-.34,0-.19a11.36,11.36,0,0,1-.09-1.41,10.6,10.6,0,0,1,0-1.38,6.58,6.58,0,0,1,.73-2.68l.19.07a9.21,9.21,0,0,0,.12,2.57c.06.43.16.85.24,1.27s.21.84.32,1.23l-.41-.54.58.34c.18.12.33.28.5.42a2.67,2.67,0,0,1,.41.48,2.73,2.73,0,0,1,.34.52,8.1,8.1,0,0,1,.52,1.07,8.62,8.62,0,0,1,.32,1.1,11.83,11.83,0,0,1,.28,2.19c0,.37,0,.73,0,1.09a10.94,10.94,0,0,1-.08,1.11l-.07.55-.38.18a2.81,2.81,0,0,1-.62.23A2.59,2.59,0,0,1,176,96a6.09,6.09,0,0,1-.88-.06,11.65,11.65,0,0,1-1.52-.35,25.47,25.47,0,0,1-2.81-1l-.13,0-.05,0-.74-.74-.37-.36-.31-.42c-.2-.29-.42-.55-.6-.85l-.48-.91a6.56,6.56,0,0,1-.37-1,4.8,4.8,0,0,1-.29-1c-.06-.33-.17-.66-.2-1l-.09-1v-1c0-.34,0-.67.06-1a15.66,15.66,0,0,1,.3-1.94,17.78,17.78,0,0,1,1.21-3.72Z"/><path class="cls-9" d="M186.1,82.19a3.53,3.53,0,0,1-1.11.59,4.85,4.85,0,0,1-1.25.25,6.78,6.78,0,0,1-1.46-.18,4.34,4.34,0,0,1-.73-.19,4.66,4.66,0,0,1-.68-.3,6.46,6.46,0,0,1-.58-.38l-.42-.46-.26-.45a2.7,2.7,0,0,1-.13-.36l-.1-.32.09,0,.16.28a2.86,2.86,0,0,0,.19.3l.31.34.44.32c.18.07.34.17.54.24a3.88,3.88,0,0,0,.61.15,3.7,3.7,0,0,0,.66.07,11,11,0,0,0,1.31-.07,11.59,11.59,0,0,1,1.18,0,10.61,10.61,0,0,1,1.21.1Z"/><path class="cls-9" d="M116.31,100.42a39.31,39.31,0,0,1-1.08,5.13c-.23.85-.51,1.68-.79,2.51s-.61,1.66-1,2.46a22.45,22.45,0,0,1-2.66,4.68c-.28.36-.56.72-.88,1.06a9.57,9.57,0,0,1-1,1,11.51,11.51,0,0,1-1.19.84l-.66.35-.71.27-.55.22-.44-.46a11,11,0,0,1-.75-.83c-.24-.27-.46-.55-.68-.84-.43-.57-.83-1.16-1.21-1.76a28.25,28.25,0,0,1-2-3.77c-.28-.65-.53-1.32-.76-2s-.45-1.35-.62-2a26.76,26.76,0,0,1-.73-4.17v-.17a3.25,3.25,0,0,1,.14-.54,4.14,4.14,0,0,1,.19-.49,4.4,4.4,0,0,1,.57-.92,2.8,2.8,0,0,1,.89-.7,2.6,2.6,0,0,1,1.08-.26h.1l.07,0a10.45,10.45,0,0,0,2.24.62,5.61,5.61,0,0,0,1.16.07,2.67,2.67,0,0,0,1.14-.29,3.73,3.73,0,0,1-2.33.69,9.94,9.94,0,0,1-2.48-.28l.17,0a1.72,1.72,0,0,0-1.17.78,2.59,2.59,0,0,0-.33.69c0,.12-.07.25-.1.38a3.19,3.19,0,0,0,0,.37v-.17a28.4,28.4,0,0,0,1,3.88c.21.63.43,1.27.68,1.88s.52,1.23.82,1.83a29.48,29.48,0,0,0,1.94,3.48c.36.56.75,1.1,1.14,1.63.2.26.4.52.61.77s.43.51.62.71l-1-.24.5-.19.49-.24a9.84,9.84,0,0,0,.94-.65c.3-.25.6-.51.88-.79a11.67,11.67,0,0,0,.82-.9,18.43,18.43,0,0,0,1.46-2,25.07,25.07,0,0,0,1.3-2.18A75.7,75.7,0,0,0,116.31,100.42Z"/><path class="cls-9" d="M103.77,115.15s.5-.4,1.24-1.07a36.09,36.09,0,0,0,2.58-2.56,18,18,0,0,0,2.2-2.88,5.13,5.13,0,0,0,.32-.6,3.15,3.15,0,0,0,.22-.47l.16-.43-.12.44a4.24,4.24,0,0,1-.17.5,6.27,6.27,0,0,1-.27.63,18.6,18.6,0,0,1-2,3.13,40.43,40.43,0,0,1-3.54,4.06.5.5,0,0,1-.71-.71Z"/><path class="cls-9" d="M101.06,108.9l.28.06a4.87,4.87,0,0,0,.84,0,6.05,6.05,0,0,0,2.55-.76,4.5,4.5,0,0,0,.64-.38,6.9,6.9,0,0,0,.59-.43,9.65,9.65,0,0,0,1-.87c.28-.26.47-.53.63-.69l.23-.27-.2.3c-.13.18-.29.46-.54.76a10.53,10.53,0,0,1-.88,1,6.77,6.77,0,0,1-.55.51,5.8,5.8,0,0,1-.62.49,7.54,7.54,0,0,1-1.38.77,6.6,6.6,0,0,1-1.34.39,5.13,5.13,0,0,1-1,.08,2.93,2.93,0,0,1-.42,0Z"/><path class="cls-9" d="M76.51,97.05a26.42,26.42,0,0,1-1.81,3.08A31.48,31.48,0,0,1,72.53,103c-.38.47-.78.91-1.2,1.35s-.84.86-1.28,1.27-.89.82-1.37,1.2-1,.74-1.45,1.11l.16-.14a16.62,16.62,0,0,1-1.93,1.82,9.12,9.12,0,0,1-1.16.8,4.34,4.34,0,0,1-.75.34,2,2,0,0,1-1.21,0,1.34,1.34,0,0,1-.47-.25,1.76,1.76,0,0,1-.32-.37,1.71,1.71,0,0,1-.22-.6,3.7,3.7,0,0,1-.07-.83c0-.49,0-.91.07-1.34.08-.85.18-1.66.24-2.48l0,.36c-.15-.46-.34-1-.54-1.46s-.44-1-.66-1.46a22,22,0,0,0-1.55-2.77c-.3-.44-.59-.88-.92-1.3s-.66-.82-1-1.2l-.26-.27a3.88,3.88,0,0,1-.34-.38,2.58,2.58,0,0,1-.51-1A1.41,1.41,0,0,1,56,94.19a2,2,0,0,1,.9-.63l.36,0c-.14,0-.08,0-.1,0h.21l.3,0,.63-.05,1.26-.14L62.13,93q-1.2.45-2.43.84c-.4.13-.82.25-1.23.36l-.64.16-.33.07-.17,0h-.17s0,0-.18,0l.37,0a1,1,0,0,0-.42.36c0,.11,0,.15,0,.29a1.77,1.77,0,0,0,.34.45,2.32,2.32,0,0,0,.25.21l.34.29c.44.38.85.79,1.25,1.21s.77.86,1.12,1.32a24.64,24.64,0,0,1,1.85,2.91c.27.5.52,1,.75,1.55l.33.8c.11.27.21.53.31.83l0,.17V105c-.05.86-.13,1.71-.21,2.53,0,.41-.08.82-.09,1.17a2.12,2.12,0,0,0,0,.42s0,0,0,0a.64.64,0,0,0-.12-.13.85.85,0,0,0-.14-.09l-.09,0h0c-.2,0,0,0,0,0a3.17,3.17,0,0,0,.4-.18,8.51,8.51,0,0,0,.91-.61,22,22,0,0,0,1.78-1.57l.08-.08.08-.06c.47-.32,1-.61,1.41-1s.92-.69,1.38-1c.91-.7,1.77-1.47,2.63-2.26A63.38,63.38,0,0,0,76.51,97.05Z"/><polygon class="cls-9" points="57.96 96.55 62.07 96.13 58.64 98.43 57.96 96.55"/><polygon class="cls-9" points="60.78 100.49 67.55 98.35 61.64 102.29 60.78 100.49"/><polygon class="cls-9" points="61.74 104.13 70.57 99.87 62.79 105.83 61.74 104.13"/><path class="cls-9" d="M44.2,91s1.21-.57,3-1.28a59.75,59.75,0,0,1,6.83-2.23c.62-.18,1.27-.3,1.89-.45s1.26-.23,1.86-.35,1.19-.15,1.75-.22l1.57-.1c.49,0,.94,0,1.34,0a5.85,5.85,0,0,1,1,.09l.88.11-.89,0a6.92,6.92,0,0,0-1,0c-.39,0-.84,0-1.31.11l-1.53.25c-.54.12-1.11.23-1.69.38s-1.18.32-1.78.52-1.21.38-1.81.61a61.33,61.33,0,0,0-6.44,2.82c-1.71.87-2.79,1.51-2.79,1.51Z"/><path class="cls-9" d="M66.42,90.65l11.76,2c3.53.63,7.65,1.28,12.07,2s9.13,1.44,13.86,2.08,9.45,1.28,13.9,1.72c2.23.2,4.38.41,6.42.56s4,.25,5.76.29,3.42,0,4.87,0,2.71-.18,3.74-.3a21.3,21.3,0,0,0,2.37-.48l.83-.22-.81.28a19.89,19.89,0,0,1-2.35.61c-1,.17-2.3.36-3.76.48s-3.1.2-4.9.2-3.74,0-5.79-.12-4.22-.22-6.46-.43c-4.47-.4-9.22-1-14-1.59s-9.45-1.45-13.86-2.22-8.52-1.6-12-2.31-6.42-1.38-8.46-1.84Z"/><path class="cls-9" d="M144,103.14s.8-.53,2-1.17a27.51,27.51,0,0,1,4.67-2c.44-.14.89-.24,1.33-.36l1.31-.24c.43,0,.84-.1,1.23-.12s.77,0,1.11,0l.93.09a5.07,5.07,0,0,1,.71.13l.6.14-.61-.07a3.62,3.62,0,0,0-.71-.06h-.92c-.33,0-.69.08-1.07.13s-.77.16-1.18.24-.82.23-1.24.36-.83.3-1.23.48a27.52,27.52,0,0,0-4.29,2.32c-1.11.75-1.77,1.3-1.77,1.3a.75.75,0,0,1-1-1.16l.06,0Z"/><path class="cls-9" d="M141.64,107.93s2.69-1.31,5.46-2.46A40.62,40.62,0,0,1,151,104c.26-.09.52-.14.74-.2a4,4,0,0,1,.59-.1,1.19,1.19,0,0,1,.38,0h0a1.37,1.37,0,0,0-.37,0,4.78,4.78,0,0,0-.56.17c-.21.09-.45.16-.7.29a39.22,39.22,0,0,0-3.61,1.89c-2.57,1.48-5.06,3.1-5.06,3.1a.77.77,0,0,1-1-.22.75.75,0,0,1,.22-1Z"/><path class="cls-9" d="M41.63,89l-.12-.19a.58.58,0,0,0-.45-.58l-.47-.13a1.59,1.59,0,0,0-.72,0,2.47,2.47,0,0,0-.77.3,2.32,2.32,0,0,0-.83,1c-.16.25-.2.63.08.77a2.89,2.89,0,0,0,2,.52.82.82,0,0,0,.63-.26,1.39,1.39,0,0,0,.33-.65,1.93,1.93,0,0,0,.15-.4C41.53,89.41,41.67,89.1,41.63,89Z"/><path class="cls-9" d="M179.49,72.14a3.44,3.44,0,0,1-.15,1.16,2.39,2.39,0,0,1-.41.87c-.21.25-.56.44-.79.72a6.76,6.76,0,0,0-1.13,1.6,2.46,2.46,0,0,0-.2.63l-.05.26-.2,0-.11-.27a1.31,1.31,0,0,1-.09-.33,4.28,4.28,0,0,1-.06-.44,4.48,4.48,0,0,1,.09-1.12,5.89,5.89,0,0,1,.39-1.21,6.45,6.45,0,0,1,.51-1.16,2.27,2.27,0,0,1,.87-.66,2.57,2.57,0,0,1,1.2-.24Z"/><path class="cls-9" d="M173.15,74.51a.41.41,0,0,0-.07-.11.37.37,0,0,0-.27-.36l-.28-.08a1.29,1.29,0,0,0-.44,0,1.76,1.76,0,0,0-.47.18,1.44,1.44,0,0,0-.5.59c-.09.15-.12.38,0,.47a1.8,1.8,0,0,0,1.19.32.53.53,0,0,0,.38-.16.76.76,0,0,0,.2-.4,1,1,0,0,0,.09-.24C173.09,74.75,173.18,74.56,173.15,74.51Z"/><path class="cls-9" d="M56.47,73.42A26.87,26.87,0,0,1,52.77,75a33.67,33.67,0,0,1-3.94,1.15c-.75.14-1.5.31-2.29.41s-1.57.24-2.37.34c-1.59.22-3.19.39-4.69.48-.75.06-1.48.07-2.17.08s-1.35,0-2-.06a14.71,14.71,0,0,1-1.64-.16A8.28,8.28,0,0,1,32.47,77l-1.08-.25,0-.15,1.08.15a7.33,7.33,0,0,0,1.24.09,14.55,14.55,0,0,0,1.62,0c.59,0,1.23,0,1.9-.12s1.39-.12,2.12-.24c1.47-.19,3-.46,4.57-.79S47,75,48.48,74.64s2.81-.58,4-.79c2.35-.42,4-.58,4-.58Z"/><path class="cls-9" d="M49.74,80.23a1.27,1.27,0,0,0-.07-.12.35.35,0,0,0-.27-.35l-.28-.08a.94.94,0,0,0-.44,0,1.48,1.48,0,0,0-.47.18,1.38,1.38,0,0,0-.5.59c-.1.15-.12.38,0,.46a1.73,1.73,0,0,0,1.19.32.46.46,0,0,0,.38-.16.77.77,0,0,0,.2-.39,1.06,1.06,0,0,0,.09-.25C49.68,80.47,49.77,80.28,49.74,80.23Z"/></g></g></svg>